<svg width="22" height="20" viewBox="0 0 22 20" fill="none" xmlns="http://www.w3.org/2000/svg">
<path d="M20.3334 8.66665H4.52004L9.36004 2.85331C9.58636 2.58103 9.69524 2.22998 9.66273 1.87742C9.63023 1.52485 9.459 1.19963 9.18671 0.973314C8.91442 0.746996 8.56338 0.638114 8.21081 0.67062C7.85824 0.703126 7.53302 0.874359 7.30671 1.14665L0.640041 9.14665C0.595188 9.21028 0.55508 9.27713 0.52004 9.34665C0.52004 9.41331 0.520041 9.45331 0.426708 9.51998C0.366272 9.67286 0.334629 9.8356 0.333374 9.99998C0.334629 10.1644 0.366272 10.3271 0.426708 10.48C0.426708 10.5466 0.426707 10.5866 0.52004 10.6533C0.55508 10.7228 0.595188 10.7897 0.640041 10.8533L7.30671 18.8533C7.43207 19.0038 7.58906 19.1249 7.7665 19.2078C7.94395 19.2908 8.13749 19.3336 8.33337 19.3333C8.64491 19.3339 8.94683 19.2254 9.18671 19.0266C9.32172 18.9147 9.43332 18.7772 9.51512 18.6221C9.59693 18.467 9.64732 18.2972 9.66342 18.1226C9.67952 17.948 9.66101 17.7719 9.60895 17.6044C9.5569 17.4369 9.47231 17.2814 9.36004 17.1466L4.52004 11.3333H20.3334C20.687 11.3333 21.0261 11.1928 21.2762 10.9428C21.5262 10.6927 21.6667 10.3536 21.6667 9.99998C21.6667 9.64636 21.5262 9.30722 21.2762 9.05717C21.0261 8.80712 20.687 8.66665 20.3334 8.66665Z" fill="white"/>
</svg>
